<svg xmlns="http://www.w3.org/2000/svg" viewBox="0 0 342.61 143.52"><defs><style>.cls-1{fill: white;}</style></defs><title>Fichier 1</title><g id="Calque_2" data-name="Calque 2"><g id="Calque_1-2" data-name="Calque 1"><path class="cls-1" d="M32.39,139.68c7.5-1.23,11.55,1.15,13.2,5.49.45,1.16.41,2.19-1.5,2.43-10.94,1.41-21.95,5.14-32.7,8.31-3.6,1-5.1,1-6.75-1.35a42.85,42.85,0,0,1-3.9-6.47c-1.05-2.56-1-4.84.45-8.79a474.06,474.06,0,0,1,41.1-79.76c1.35-2,2.7-1.94,3.6-.08,1.8,3.58,2.39,9.89-3.75,21.7-11,21.26-22.4,42.31-32.55,64A211.59,211.59,0,0,1,32.39,139.68Z" transform="translate(0 -13.06)"/><path class="cls-1" d="M54.59,130.18a225.61,225.61,0,0,1,19.2-39.49c1.35-2,2.4-2.65,3.6-1.5,2.25,2,3.5,8.45-.15,16.46-4,8.79-9,17.5-12.6,26.44-3.67,9.12-2.92,15.37,1.5,14.11,9.41-2.67,15.87-14.85,19.5-23.93.75-1.49,1.8-1.54,2.4-.44,1.2,2.19.75,5.44-1,9.54-4.15,9.19-12.25,17.37-22.35,19.44C51.76,153.45,51.61,138.07,54.59,130.18ZM88,85.51a5.11,5.11,0,0,1-8.4-.77,9.79,9.79,0,0,1,.75-11.29c2.4-3,6.73-1.89,8.7,1.77A9.77,9.77,0,0,1,88,85.51Z" transform="translate(0 -13.06)"/><path class="cls-1" d="M97.79,140.45c6.74,1,18.93-16.66,23.55-26.79,1-2.19,2.68-2.67,3.3-.74.71,2.22.25,5.94-1.5,9.66-4.53,9.67-14.17,19.36-25,22C85,147.82,83.63,132.48,85.64,123.18c6-27.77,20.39-54.79,37.95-77.1,2.25-2.9,4.35-3.67,6.45-2.18,4.35,2.93,5.25,8.28,3.45,15.76-5.18,20-26.51,40.4-34.8,52.76C95.06,117.81,91.81,139.56,97.79,140.45Zm30.6-82.81c-.94-.44-16.92,26.77-23.4,39.79q-2,4-3.6,8C113,93.49,128.39,57.64,128.39,57.64Z" transform="translate(0 -13.06)"/><path class="cls-1" d="M118.79,118.58A247.91,247.91,0,0,1,138,77.71c1.35-2.12,2.4-2.81,3.6-1.74,2.25,1.88,3.5,8.18-.15,16.41-4,9.05-9,18.05-12.6,27.26-3.67,9.37-2.92,15.53,1.5,13.94,9.47-3.41,15.79-15.73,19.5-25.16.75-1.53,1.8-1.63,2.4-.57,1.2,2.12.75,5.38-1,9.56-4.2,9.47-12.36,17.92-22.35,20.87C115.9,142.12,116,126.07,118.79,118.58Zm33.45-46.92a5.1,5.1,0,0,1-8.4-.28c-2.36-3.49-1.65-8.18.75-11.29s6.73-2.28,8.7,1.26S154.19,69.1,152.24,71.66Z" transform="translate(0 -13.06)"/><path class="cls-1" d="M168.89,128.15c-7.56,2.16-13-.88-15.75-6.84-1.35,3.48-3,7.48-4.35,11-.6,1.65-1.5,2-2.4,1-2.25-2.47-3.85-6.67-.75-16.35,10-31.32,26.77-64.14,43.8-92.82,1.35-2.26,2.55-2.55,3.75-.73,2.25,3.67,2.25,10.4-3.9,23.09-4.35,8.71-9,17.27-13.35,26,4.35-4.94,9.1-8.6,12.9-9.38,17.66-3.6,7.37,28.28,5.1,34.74C189.93,109.22,181,124.68,168.89,128.15Zm6.75-49.78c-8.13,10.89-14.17,23.31-19.5,35.76.3,4.28,2.54,8.87,6.3,8.53,10.28-.9,17-17.56,20.85-25.74,3.78-8,7.78-25.51,3.3-27.17C185,69.17,180.14,72.64,175.64,78.37Z" transform="translate(0 -13.06)"/><path class="cls-1" d="M279,105.35C266.6,107,263.65,93.63,266.83,84.46c3.94-11.34,11-21.65,18.6-31a42.63,42.63,0,0,1-18,8.36c-9.59,20.2-23.18,47.69-46.5,54.27-22.05,6.23-21.76-21.18-15.75-33.82,5-10.44,17.57-32,32.25-29.66,3.75,1.48,6.49,3,8.85,5.85,2.55,3,.75,12.23-4.95,21-5.81,8.94-16.87,16.61-27.6,10.43-4.8,14.71-.81,23.72,6.6,22.15,20.21-4.29,34.08-32.52,41.25-50.12-10-6.78,2.12-24,9.45-26.48,3.87-1.3,3.15,8.44-.6,18.74,5.25-1.58,10.5-4.75,16.35-9.39,1.8-1.43,3.15-2.34,4.2-1,3,2.91,6.75,9.62,2.25,15.07-6.65,8.75-13.95,17.81-17.25,28.28-2.65,8.4-.33,14.55,3.75,13.75,9-1.78,15.31-14.51,18.75-23,.6-1.26,1.65-1.66,2.25-.39.74,1.56,1,5.39-.75,9.76C297,95.48,287.85,104.17,279,105.35Zm-46.2-30.24c4.81-7.11,7.95-15.53,6-16.78-10.82,1.45-18.34,16.39-22.5,25.16-.45.85-.75,2-1.2,2.81C222.44,89.14,228.31,81.73,232.79,75.11Z" transform="translate(0 -13.06)"/><path class="cls-1" d="M305.68,38.08c-1.5-1.93-.57-3,1.65-3.12a97.64,97.64,0,0,0,12.45-1.51c4.65-8.45,8.85-15.59,11.4-18.93,1.35-2,2.85-1.86,3.6-.09,1.65,4.13,1.65,9-2,16.83,5.85-.3,8.14,2.41,9.3,4.33,1.06,1.75.3,3-1.8,2.83a52.5,52.5,0,0,0-11.7.85c-7.21,12.43-14.3,25-20.1,38.14-5,11.23-2.69,20.85,3,20.13,9.39-1.19,16.73-14,20.85-22.58.9-1.81,2.53-2.11,3.15-.08.71,2.34.07,5.24-1.5,8.5-4.27,8.89-13.88,17.65-23.85,18.29-13.95.89-14.76-17.16-10.65-27.4,4.7-11.3,10.18-22.29,15.9-33.11C310.33,41.51,306.87,39.6,305.68,38.08Z" transform="translate(0 -13.06)"/></g></g></svg>